# xmcd
#
# Track frame offsets:
#	150
#	10448
#	25378
#	34160
#	50115
#	59570
#	69434
#	83700
#	91267
#	101982
#	110873
#	123028
#	129988
#	144444
#	153688
#	162732
#	173138
#	185907
#	195507
#	207990
#
# Disc length: 2948 seconds
#
# Revision: 1
# Processed by: cddbd v1.5.2PL0 Copyright (c) Steve Scherf et al.
# Submitted via: audiograbber 1.83.01
#
DISCID=2b0b8214
DTITLE=Various Artist - Christmas Memories
DYEAR=1900
DGENRE=
TTITLE0=Jeannie and Al - Winter Wonderland
TTITLE1=Skeeter Davis - Silent Night
TTITLE2=Bobby Helms - Jingle Belll Rock
TTITLE3=Bill Doggett - Blue Christmas
TTITLE4=Nashville Guitars - Christmas Siong
TTITLE5=Red Sovine - Christmas Love Song
TTITLE6=Bob Kames - The First Noel
TTITLE7=Jim Glaser Singers - Angels We Have Heard On High
TTITLE8=Leon Payne - Christmas Every Day
TTITLE9=Warner Mack - Rocking Around the Christmas Tree
TTITLE10=Billy Walker - Silver Bells
TTITLE11=Bill Doggett - Joy To The World
TTITLE12=Dee Mullens - Remember Bethlehem
TTITLE13=Steel Guitar - Little Drummer Boy
TTITLE14=Christmas Vibes - Christmas In My Hometown
TTITLE15=Red Sovine - The Legend Of The Christmas Rose
TTITLE16=Christmas Harmonica - O Little Town Of Bethlehem
TTITLE17=Bobby Sykes - An Old Fashioned Christmas
TTITLE18=Al Dexter - Santa Is On His Way
TTITLE19=Red Sovine - Here It Is Christmas
EXTD=
EXTT0=
EXTT1=
EXTT2=
EXTT3=
EXTT4=
EXTT5=
EXTT6=
EXTT7=
EXTT8=
EXTT9=
EXTT10=
EXTT11=
EXTT12=
EXTT13=
EXTT14=
EXTT15=
EXTT16=
EXTT17=
EXTT18=
EXTT19=
PLAYORDER=
